<svg width="144" height="82" viewBox="0 0 144 82" fill="none" xmlns="http://www.w3.org/2000/svg">
<path id="Vector" d="M141.261 69.8631C143.79 65.4806 143.835 64.7277 141.95 62.1217C140.349 59.8348 138.366 58.8852 132.688 57.7905C119.474 55.1122 113.368 58.6766 125.722 61.8324C129.371 62.7304 132.249 63.8846 132.222 64.3363C132.123 65.9927 120.018 71.3144 112.044 73.256C88.6529 79.0369 62.4306 71.5014 54.7637 56.9139C52.4029 52.1638 51.7501 49.178 52.9469 48.1161C53.3458 47.7621 55.7821 47.4543 58.4218 47.5364C70.2919 47.4143 80.1922 41.0542 79.2417 34.1971C78.6261 29.3245 68.6204 24.7978 61.0014 25.8539C56.2705 26.6291 51.1292 30.4778 48.2545 35.5952L45.717 40.1283L37.9071 36.7906C23.1638 30.6208 12.8167 21.6912 7.14885 10.321C5.66335 7.36104 3.53173 3.83355 2.32824 2.47716L0.124648 0.154321L0.236927 3.33451C0.375028 7.34739 3.77861 14.8799 8.5824 21.7405C13.457 28.6809 24.3098 36.734 36.0775 42.1215L45.419 46.3819L46.8752 52.3625C53.0449 76.8344 91.7619 88.9697 121.413 75.7802C125.135 74.189 128.857 72.5979 129.637 72.1912C130.647 71.7226 130.815 72.7149 129.971 75.4601C129.313 77.6121 129.267 79.6494 130.002 79.9956C131.826 81.0868 138.218 75.2727 141.261 69.8631ZM60.5885 41.6211C54.3518 42.3064 52.0504 40.3555 54.543 36.5753C57.2839 32.4321 63.8938 30.5602 68.9854 32.6022C74.2276 34.6532 74.2276 34.6532 72.7554 36.5298C71.0259 38.9199 66.214 41.0504 60.5885 41.6211Z" fill="#C3C6D2"/>
</svg>
