<svg width="64" height="64" viewBox="0 0 64 64" fill="none" xmlns="http://www.w3.org/2000/svg">
<g clip-path="url(#clip0_29_262)">
<path d="M42 30C44.2091 30 46 28.2091 46 26C46 23.7909 44.2091 22 42 22C39.7909 22 38 23.7909 38 26C38 28.2091 39.7909 30 42 30Z" stroke="#4580BC" stroke-width="2" stroke-linecap="round" stroke-linejoin="round"/>
<path d="M22 46C24.2091 46 26 44.2091 26 42C26 39.7909 24.2091 38 22 38C19.7909 38 18 39.7909 18 42C18 44.2091 19.7909 46 22 46Z" stroke="#4580BC" stroke-width="2" stroke-linecap="round" stroke-linejoin="round"/>
<path d="M38 54V40L22 24V10" stroke="#4580BC" stroke-width="2" stroke-linecap="round" stroke-linejoin="round"/>
<path d="M22 38V24" stroke="#4580BC" stroke-width="2" stroke-linecap="round" stroke-linejoin="round"/>
<path d="M52 10H12C10.8954 10 10 10.8954 10 12V52C10 53.1046 10.8954 54 12 54H52C53.1046 54 54 53.1046 54 52V12C54 10.8954 53.1046 10 52 10Z" stroke="#4580BC" stroke-width="2" stroke-linecap="round" stroke-linejoin="round"/>
<path d="M34 10V18L39.1725 23.1725" stroke="#4580BC" stroke-width="2" stroke-linecap="round" stroke-linejoin="round"/>
</g>
<defs>
<clipPath id="clip0_29_262">
<rect width="64" height="64" fill="white"/>
</clipPath>
</defs>
</svg>
