<svg width="123" height="36" viewBox="0 0 123 36" fill="none" xmlns="http://www.w3.org/2000/svg">
<path d="M122.222 32.4068C122.222 34.3581 120.691 35.9397 118.801 35.9397H91.7106C89.8206 35.9397 88.2896 34.3581 88.2896 32.4068V4.13295C88.2896 2.18178 89.8206 0.599945 91.7106 0.599945H118.801C120.691 0.599945 122.222 2.18178 122.222 4.13295V32.4068Z" fill="white"/>
<path d="M0.442627 7.60449H4.91691V24.6834H12.8058V28.6871H0.442627V7.60449Z" fill="white"/>
<path d="M19.2166 9.15903C19.2166 10.471 18.3517 11.5335 16.9286 11.5335C15.5892 11.5335 14.7241 10.471 14.7241 9.15903C14.7241 7.81548 15.6173 6.78439 16.9846 6.78439C18.3517 6.78439 19.1889 7.81548 19.2166 9.15903ZM14.8358 28.6871V13.4082H19.0774V28.6871H14.8358Z" fill="white"/>
<path d="M22.2254 18.1678C22.2254 16.2411 22.1664 14.6302 22.1072 13.2399H26.0056L26.2127 15.3881H26.3014C26.8919 14.3771 28.339 12.8925 30.7606 12.8925C33.7144 12.8925 35.9296 15.0091 35.9296 19.5578V28.6871H31.4401V20.1264C31.4401 18.1364 30.7905 16.7782 29.1662 16.7782C27.9255 16.7782 27.1873 17.6943 26.8622 18.5785C26.7442 18.8945 26.7149 19.3366 26.7149 19.7791V28.6871H22.2254V18.1678Z" fill="white"/>
<path d="M43.5904 19.8478H43.6495C43.9751 19.1918 44.3301 18.5673 44.685 18.0051L47.6134 13.4134H53.027L47.8501 19.5978L53.7664 28.6871H48.2348L44.7141 22.4087L43.5904 23.908V28.6871H39.0935V6.5108H43.5904V19.8478Z" fill="white"/>
<path d="M57.6273 22.4885C57.7455 24.477 59.6055 25.4242 61.7021 25.4242C63.2377 25.4242 64.4778 25.203 65.689 24.7612L66.2792 28.0125C64.8026 28.6754 63.0016 28.991 61.0527 28.991C56.1507 28.991 53.3455 25.9609 53.3455 21.1311C53.3455 17.2171 55.6195 12.8925 60.6388 12.8925C65.3047 12.8925 67.0764 16.7753 67.0764 20.5946C67.0764 21.4151 66.9875 22.1411 66.9286 22.4885H57.6273ZM62.9127 19.2055C62.9127 18.0377 62.4404 16.0805 60.3735 16.0805C58.4835 16.0805 57.7156 17.9434 57.5976 19.2055H62.9127Z" fill="white"/>
<path d="M83.3062 6.5108V24.1197C83.3062 25.8368 83.3654 27.6478 83.4246 28.678H79.4284L79.251 26.4612H79.1626C78.2746 28.147 76.4985 29.0218 74.6339 29.0218C71.2007 29.0218 68.4477 25.9307 68.4477 21.1848C68.4184 16.0331 71.4672 13.0362 74.9297 13.0362C76.7352 13.0362 78.0969 13.7229 78.7478 14.7531H78.807V6.5108H83.3062ZM78.807 19.8737C78.807 19.6235 78.807 19.2803 78.7478 18.9992C78.4817 17.7507 77.5052 16.689 76.114 16.689C74.0417 16.689 73.0057 18.6247 73.0057 21.0288C73.0057 23.6198 74.2197 25.2434 76.0843 25.2434C77.3865 25.2434 78.452 24.3071 78.7184 22.9647C78.7778 22.6211 78.807 22.2467 78.807 21.8718V19.8737Z" fill="white"/>
<path d="M99.0575 9.15887C99.0575 10.4708 98.1925 11.5333 96.7695 11.5333C95.4302 11.5333 94.5652 10.4708 94.5652 9.15887C94.5652 7.81533 95.458 6.78424 96.8251 6.78424C98.1925 6.78424 99.0298 7.81533 99.0575 9.15887ZM94.677 28.6869V13.408H98.9181V28.6869H94.677Z" fill="#2A9CCA"/>
<path d="M102.067 18.1677C102.067 16.241 102.008 14.6301 101.949 13.2398H105.847L106.054 15.388H106.143C106.733 14.3769 108.181 12.8923 110.603 12.8923C113.556 12.8923 115.771 15.009 115.771 19.5577V28.687H111.282V20.1263C111.282 18.1363 110.632 16.7781 109.007 16.7781C107.767 16.7781 107.029 17.6942 106.704 18.5784C106.586 18.8943 106.556 19.3365 106.556 19.779V28.687H102.067V18.1677Z" fill="#2A9CCA"/>
</svg>
