<svg width="33" height="32" viewBox="0 0 33 32" fill="none" xmlns="http://www.w3.org/2000/svg">
<g id="Gear" clip-path="url(#clip0_25_240)">
<path id="Vector" d="M16.5 21C19.2614 21 21.5 18.7614 21.5 16C21.5 13.2386 19.2614 11 16.5 11C13.7386 11 11.5 13.2386 11.5 16C11.5 18.7614 13.7386 21 16.5 21Z" stroke="black" stroke-width="2" stroke-linecap="round" stroke-linejoin="round"/>
<path id="Vector_2" d="M5.67867 22.2612C5.12614 21.3095 4.70283 20.2885 4.41992 19.225L6.51742 16.6C6.49367 16.1987 6.49367 15.7963 6.51742 15.395L4.42117 12.77C4.7036 11.7063 5.12604 10.6849 5.67742 9.73248L9.01617 9.35748C9.28279 9.0571 9.56704 8.77285 9.86742 8.50623L10.2424 5.16873C11.1935 4.61998 12.2132 4.20005 13.2749 3.91998L15.8999 6.01748C16.3012 5.99373 16.7036 5.99373 17.1049 6.01748L19.7299 3.92123C20.7936 4.20366 21.815 4.6261 22.7674 5.17748L23.1424 8.51623C23.4428 8.78285 23.7271 9.0671 23.9937 9.36748L27.3312 9.74248C27.8837 10.6942 28.307 11.7152 28.5899 12.7787L26.4924 15.4037C26.5162 15.805 26.5162 16.2074 26.4924 16.6087L28.5887 19.2337C28.3082 20.2971 27.8879 21.3185 27.3387 22.2712L23.9999 22.6462C23.7333 22.9466 23.4491 23.2309 23.1487 23.4975L22.7737 26.835C21.822 27.3875 20.8009 27.8108 19.7374 28.0937L17.1124 25.9962C16.7111 26.02 16.3087 26.02 15.9074 25.9962L13.2824 28.0925C12.2191 27.812 11.1977 27.3917 10.2449 26.8425L9.86992 23.5037C9.56954 23.2371 9.28529 22.9529 9.01867 22.6525L5.67867 22.2612Z" stroke="black" stroke-width="2" stroke-linecap="round" stroke-linejoin="round"/>
</g>
<defs>
<clipPath id="clip0_25_240">
<rect width="32" height="32" fill="white" transform="translate(0.5)"/>
</clipPath>
</defs>
</svg>
