<svg width="70" height="22" viewBox="0 0 70 22" fill="none" xmlns="http://www.w3.org/2000/svg">
<g id="Group 113">
<path id="Path 455" d="M30.2837 21.471H24.567L28.1401 0.384277H33.8573L30.2837 21.471Z" fill="white"/>
<path id="Path 456" d="M20.0138 0.384491L14.6383 14.8872L14.0029 11.7641L14.0034 11.7652L12.1058 2.28363C12.1058 2.28363 11.877 0.384491 9.43143 0.384491H0.546311L0.442627 0.74097C0.442627 0.74097 3.16047 1.29148 6.33939 3.15226L11.2375 21.4708H17.1117L26.0814 0.384491H20.0138Z" fill="white"/>
<path id="Path 457" d="M64.008 21.4708H69.196L64.6727 0.384491H60.1303C58.0323 0.384491 57.5214 1.95592 57.5214 1.95592L49.0959 21.4708H54.9846L56.1631 18.3392H63.3457L64.008 21.4708ZM57.7908 14.0118L60.7601 6.12083L62.4302 14.0118H57.7908Z" fill="white"/>
<path id="Path 458" d="M49.7237 5.45161L50.531 0.919986C50.531 0.919986 48.0382 0 45.4396 0C42.6304 0 35.96 1.19202 35.96 6.98512C35.96 12.4367 43.789 12.5045 43.789 15.3666C43.789 18.2287 36.7667 17.7173 34.4496 15.9118L33.6074 20.6489C33.6074 20.6489 36.1345 21.8409 39.9975 21.8409C43.86 21.8409 49.6882 19.8988 49.6882 14.617C49.6882 9.131 41.7883 8.62021 41.7883 6.23558C41.7883 3.84982 47.3013 4.1563 49.7237 5.45161Z" fill="white"/>
</g>
</svg>
