<svg width="64" height="64" viewBox="0 0 64 64" fill="none" xmlns="http://www.w3.org/2000/svg">
<g clip-path="url(#clip0_29_270)">
<path d="M56 50V52C56 54.1217 55.1571 56.1566 53.6569 57.6569C52.1566 59.1571 50.1217 60 48 60H34" stroke="#4580BC" stroke-width="2" stroke-linecap="round" stroke-linejoin="round"/>
<path d="M56 32H48C46.9391 32 45.9217 32.4214 45.1716 33.1716C44.4214 33.9217 44 34.9391 44 36V46C44 47.0609 44.4214 48.0783 45.1716 48.8284C45.9217 49.5786 46.9391 50 48 50H56V32ZM56 32C56 28.8483 55.3792 25.7274 54.1731 22.8156C52.967 19.9038 51.1992 17.258 48.9706 15.0294C46.742 12.8008 44.0962 11.033 41.1844 9.82689C38.2726 8.62078 35.1517 8 32 8C28.8483 8 25.7274 8.62078 22.8156 9.82689C19.9038 11.033 17.258 12.8008 15.0294 15.0294C12.8008 17.258 11.033 19.9038 9.82689 22.8156C8.62078 25.7274 8 28.8483 8 32M8 32V46C8 47.0609 8.42143 48.0783 9.17157 48.8284C9.92172 49.5786 10.9391 50 12 50H16C17.0609 50 18.0783 49.5786 18.8284 48.8284C19.5786 48.0783 20 47.0609 20 46V36C20 34.9391 19.5786 33.9217 18.8284 33.1716C18.0783 32.4214 17.0609 32 16 32H8Z" stroke="#4580BC" stroke-width="2" stroke-linecap="round" stroke-linejoin="round"/>
</g>
<defs>
<clipPath id="clip0_29_270">
<rect width="64" height="64" fill="white"/>
</clipPath>
</defs>
</svg>
