<svg width="96" height="80" viewBox="0 0 96 80" fill="none" xmlns="http://www.w3.org/2000/svg">
<path id="Vector" d="M95.3686 74.5036C94.4416 71.547 90.9023 67.1956 87.4658 64.8513C84.3297 62.6344 83.6735 62.5741 79.9812 64.2388C78.9644 64.7073 78.5415 64.4187 74.8169 60.7932C72.6205 58.6751 69.2349 54.8934 67.3078 52.4941C63.9632 48.1981 57.635 37.3731 58.1038 36.6858C58.2649 36.5633 60.5822 35.665 63.3609 34.7716C71.6804 32.0024 74.6662 30.0106 78.2368 24.7765C81.6993 19.7011 82.3875 16.7617 81.3433 11.4784C80.2343 5.60859 76.1036 1.78344 69.8305 0.757897C57.4623 -1.32679 49.0972 10.7081 50.958 27.6273L51.6583 33.5283L46.3631 34.0221C35.703 34.8846 24.4282 33.4684 14.2765 29.9517C1.08203 25.444 0.550875 25.3141 0.752498 26.3813C1.02133 27.8043 9.02183 31.6353 17.3015 34.2621C24.9442 36.6869 36.714 38.2859 44.1027 37.9032C54.4935 37.3219 52.9386 36.6485 55.9607 42.8937C59.2085 49.6029 63.7593 55.6515 70.0696 61.5058C72.7057 64.0014 75.3418 66.497 75.9041 67.0355C76.5889 67.7351 76.7208 68.6774 76.2831 69.7733C74.0776 75.1639 74.9186 76.2025 83.2224 78.226C92.4468 80.4902 96.8456 79.1525 95.3686 74.5036ZM69.9198 27.315C66.9533 29.165 57.0977 32.823 56.4104 32.3542C56.199 32.2099 55.6732 29.9144 55.258 27.2295C53.6099 15.3362 57.881 6.00902 65.616 4.77798C71.6612 3.86619 76.3666 7.07617 77.4059 12.821C78.3562 18.5826 75.7446 23.7736 69.9198 27.315Z" fill="#C3C6D2"/>
</svg>
