<svg width="94" height="27" viewBox="0 0 94 27" fill="none" xmlns="http://www.w3.org/2000/svg">
<path d="M9.25707 0.136363H12.9162V14.4545C12.9095 15.767 12.6311 16.8973 12.0809 17.8452C11.5307 18.7865 10.7618 19.5123 9.77411 20.0227C8.79305 20.5265 7.64959 20.7784 6.34372 20.7784C5.15053 20.7784 4.07667 20.5663 3.12213 20.142C2.17421 19.7112 1.42184 19.0748 0.865023 18.233C0.308205 17.3911 0.0297956 16.3437 0.0297956 15.0909H3.69883C3.70546 15.6411 3.82478 16.1151 4.05678 16.5128C4.29542 16.9105 4.62355 17.2154 5.04116 17.4276C5.45877 17.6397 5.93936 17.7457 6.48292 17.7457C7.07288 17.7457 7.57336 17.6231 7.98434 17.3778C8.39533 17.1259 8.70688 16.7547 8.919 16.2642C9.13775 15.7737 9.25044 15.1705 9.25707 14.4545V0.136363ZM22.9606 20.7983C21.4293 20.7983 20.1069 20.4801 18.9932 19.8438C17.8862 19.2008 17.0344 18.2926 16.4378 17.1193C15.8412 15.9394 15.5429 14.5507 15.5429 12.9531C15.5429 11.3821 15.8412 10.0033 16.4378 8.81676C17.0411 7.62358 17.8829 6.69555 18.9634 6.03267C20.0439 5.36316 21.3133 5.02841 22.7716 5.02841C23.7129 5.02841 24.6012 5.18087 25.4364 5.48579C26.2783 5.78409 27.0207 6.24811 27.6637 6.87784C28.3133 7.50758 28.8237 8.30966 29.1949 9.28409C29.5662 10.2519 29.7518 11.4053 29.7518 12.7443V13.848H17.2333V11.4219H26.3015C26.2948 10.7325 26.1457 10.1193 25.854 9.58239C25.5624 9.03883 25.1547 8.61127 24.631 8.29972C24.114 7.98816 23.5108 7.83239 22.8214 7.83239C22.0856 7.83239 21.4393 8.01136 20.8824 8.36932C20.3256 8.72064 19.8914 9.18466 19.5799 9.76136C19.275 10.3314 19.1192 10.9579 19.1126 11.6406V13.7585C19.1126 14.6468 19.275 15.4091 19.5998 16.0455C19.9246 16.6752 20.3786 17.1591 20.962 17.4972C21.5453 17.8286 22.2281 17.9943 23.0103 17.9943C23.534 17.9943 24.0079 17.9214 24.4322 17.7756C24.8564 17.6231 25.2243 17.401 25.5358 17.1094C25.8474 16.8177 26.0827 16.4564 26.2418 16.0256L29.6026 16.4034C29.3905 17.2917 28.9861 18.0672 28.3895 18.7301C27.7996 19.3864 27.0439 19.8968 26.1225 20.2614C25.2011 20.6193 24.1471 20.7983 22.9606 20.7983ZM32.2369 20.5V5.22727H35.6772V7.82244H35.8562C36.1744 6.94744 36.7013 6.26468 37.4371 5.77415C38.1729 5.27699 39.0512 5.02841 40.0721 5.02841C41.1062 5.02841 41.9779 5.2803 42.6871 5.78409C43.403 6.28125 43.9068 6.9607 44.1985 7.82244H44.3576C44.6957 6.97396 45.2657 6.29782 46.0678 5.79403C46.8765 5.28362 47.8344 5.02841 48.9414 5.02841C50.3467 5.02841 51.4935 5.47254 52.3817 6.36079C53.27 7.24905 53.7141 8.54498 53.7141 10.2486V20.5H50.1048V10.8054C50.1048 9.85748 49.8529 9.16477 49.3491 8.72727C48.8453 8.28314 48.2288 8.06108 47.4996 8.06108C46.6313 8.06108 45.9518 8.33286 45.4613 8.87642C44.9774 9.41335 44.7354 10.1127 44.7354 10.9744V20.5H41.2056V10.6562C41.2056 9.86742 40.967 9.23769 40.4897 8.76705C40.0191 8.2964 39.4026 8.06108 38.6403 8.06108C38.1232 8.06108 37.6526 8.19365 37.2283 8.45881C36.8041 8.71733 36.466 9.08523 36.2141 9.5625C35.9622 10.0331 35.8363 10.5833 35.8363 11.2131V20.5H32.2369ZM60.6538 0.136363V20.5H56.9649V0.136363H60.6538ZM77.5714 5.22727L72.1325 20.5H68.1552L62.7163 5.22727H66.5544L70.0643 16.5724H70.2234L73.7433 5.22727H77.5714ZM81.7394 26.2273C81.2489 26.2273 80.7948 26.1875 80.3772 26.108C79.9662 26.035 79.6381 25.9489 79.3928 25.8494L80.228 23.0455C80.7517 23.1979 81.219 23.2708 81.63 23.2642C82.041 23.2576 82.4023 23.1283 82.7138 22.8764C83.032 22.6312 83.3005 22.2202 83.5192 21.6435L83.8274 20.8182L78.2891 5.22727H82.1073L85.6272 16.7614H85.7863L89.3161 5.22727H93.1442L87.0292 22.3494C86.7441 23.1581 86.3663 23.8509 85.8956 24.4276C85.425 25.0109 84.8483 25.455 84.1655 25.7599C83.4894 26.0715 82.6807 26.2273 81.7394 26.2273Z" fill="white"/>
</svg>
