<svg width="130" height="39" viewBox="0 0 130 39" fill="none" xmlns="http://www.w3.org/2000/svg">
<g id="spotify-seeklogo.com 2">
<path id="spotify-seeklogo.com 2_2" d="M19.3533 0C8.68854 0 0.0426025 8.64117 0.0426025 19.3005C0.0426025 29.9609 8.68854 38.6017 19.3533 38.6017C30.0186 38.6017 38.664 29.9609 38.664 19.3005C38.664 8.64194 30.019 0.000971529 19.3531 0.000971529L19.3533 0ZM28.2091 27.8368C27.8623 28.4054 27.1211 28.5836 26.5541 28.2372C22.0195 25.467 16.3118 24.8413 9.58991 26.376C8.94218 26.5246 8.29651 26.1187 8.14895 25.4715C8.00066 24.8241 8.40488 24.1787 9.05424 24.0312C16.4102 22.3504 22.72 23.0739 27.8099 26.1826C28.3772 26.5305 28.5571 27.2702 28.2089 27.8372L28.2091 27.8368ZM30.5727 22.5823C30.1359 23.2906 29.2094 23.5127 28.5017 23.0779C23.3122 19.8894 15.3988 18.9658 9.25925 20.8285C8.46301 21.0689 7.62203 20.6204 7.38037 19.826C7.14055 19.0301 7.58952 18.1913 8.38437 17.9492C15.3975 15.8225 24.1158 16.8526 30.0767 20.5138C30.7846 20.9492 31.0083 21.8758 30.5725 22.5825L30.5727 22.5823H30.5727ZM30.7756 17.1098C24.5509 13.4152 14.2834 13.0752 8.34123 14.8779C7.38704 15.1671 6.37796 14.6288 6.08879 13.675C5.79962 12.7209 6.33783 11.713 7.29273 11.423C14.114 9.3533 25.4535 9.75337 32.619 14.0049C33.4773 14.5139 33.7588 15.6219 33.2501 16.4785C32.7428 17.3363 31.6313 17.6192 30.7758 17.1098H30.7756ZM52.5807 17.8178C49.2465 17.0231 48.6529 16.4655 48.6529 15.2935C48.6529 14.1863 49.6959 13.441 51.2469 13.441C52.7504 13.441 54.2412 14.007 55.8042 15.1719C55.8514 15.2071 55.9107 15.2211 55.969 15.2118C56.0274 15.2031 56.079 15.171 56.1132 15.123L57.7412 12.8291C57.8081 12.7346 57.7898 12.6044 57.6997 12.5324C55.8395 11.0406 53.7447 10.3152 51.2963 10.3152C47.6962 10.3152 45.1816 12.4744 45.1816 15.5642C45.1816 18.8772 47.3508 20.0503 51.0994 20.9558C54.2899 21.6903 54.8283 22.3057 54.8283 23.4059C54.8283 24.6247 53.7394 25.3826 51.9872 25.3826C50.041 25.3826 48.4535 24.7274 46.6777 23.1902C46.6337 23.1522 46.5732 23.135 46.5174 23.1382C46.4586 23.143 46.4049 23.17 46.3676 23.2152L44.5422 25.3865C44.4656 25.4765 44.4753 25.6111 44.5639 25.689C46.63 27.5325 49.1711 28.5062 51.9134 28.5062C55.7927 28.5062 58.2995 26.3879 58.2995 23.1089C58.3064 20.3409 56.6484 18.8081 52.5876 17.8208L52.5807 17.8178ZM67.0759 14.5313C65.3944 14.5313 64.0152 15.1933 62.8779 16.5495V15.0228C62.8779 14.9022 62.7801 14.8043 62.6598 14.8043H59.6743C59.5537 14.8043 59.4561 14.9022 59.4561 15.0228V31.9862C59.4561 32.1069 59.5536 32.205 59.6743 32.205H62.6598C62.7801 32.205 62.8779 32.1069 62.8779 31.9862V26.6316C64.0154 27.9077 65.3949 28.531 67.0759 28.531C70.2002 28.531 73.3631 26.1271 73.3631 21.532C73.3677 16.9357 70.2039 14.5311 67.0794 14.5311L67.0759 14.5313ZM69.8914 21.532C69.8914 23.8719 68.4493 25.5048 66.3843 25.5048C64.3429 25.5048 62.803 23.7978 62.803 21.532C62.803 19.2663 64.3429 17.559 66.3843 17.559C68.4159 17.5588 69.8917 19.2293 69.8917 21.5316L69.8914 21.532ZM81.4696 14.5313C77.446 14.5313 74.2938 17.6279 74.2938 21.5818C74.2938 25.4929 77.4243 28.5571 81.4203 28.5571C85.4582 28.5571 88.6202 25.4708 88.6202 21.532C88.6202 17.6067 85.4794 14.5316 81.4694 14.5316L81.4696 14.5313ZM81.4696 25.5282C79.3295 25.5282 77.716 23.8095 77.716 21.5308C77.716 19.2424 79.2737 17.5818 81.4203 17.5818C83.5743 17.5818 85.1986 19.3005 85.1986 21.5809C85.1986 23.8688 83.6305 25.5282 81.4698 25.5282H81.4696ZM97.2124 14.8043H93.9271V11.4469C93.9271 11.3269 93.8298 11.2285 93.7092 11.2285H90.7241C90.6033 11.2285 90.5053 11.3269 90.5053 11.4469V14.8043H89.0698C88.9497 14.8043 88.8524 14.9022 88.8524 15.0228V17.5873C88.8524 17.7076 88.9497 17.8061 89.0698 17.8061H90.5053V24.4417C90.5053 27.1232 91.8407 28.4829 94.4743 28.4829C95.5452 28.4829 96.4336 28.2618 97.2709 27.7874C97.339 27.7494 97.3811 27.6759 97.3811 27.598V25.156C97.3811 25.0807 97.3419 25.0095 97.2774 24.9698C97.2124 24.9291 97.1314 24.9271 97.0648 24.96C96.4897 25.2493 95.9337 25.3827 95.3122 25.3827C94.3544 25.3827 93.9271 24.9481 93.9271 23.9738V17.8073H97.2124C97.3329 17.8073 97.43 17.709 97.43 17.5886V15.0243C97.4346 14.9037 97.3378 14.8054 97.2156 14.8054L97.2124 14.8043ZM108.659 14.8174V14.4051C108.659 13.192 109.124 12.651 110.168 12.651C110.79 12.651 111.29 12.7745 111.85 12.9613C111.919 12.9828 111.991 12.9721 112.047 12.9309C112.105 12.8895 112.137 12.8234 112.137 12.7534V10.239C112.137 10.1429 112.076 10.0578 111.983 10.0293C111.391 9.85344 110.635 9.67303 109.501 9.67303C106.744 9.67303 105.286 11.2251 105.286 14.1597V14.7912H103.852C103.732 14.7912 103.633 14.8894 103.633 15.0096V17.5873C103.633 17.7076 103.732 17.8061 103.852 17.8061H105.286V28.0413C105.286 28.1618 105.384 28.2599 105.504 28.2599H108.49C108.61 28.2599 108.708 28.1618 108.708 28.0413V17.8068H111.496L115.766 28.0394C115.281 29.1146 114.804 29.3284 114.154 29.3284C113.628 29.3284 113.074 29.1715 112.507 28.8618C112.454 28.8325 112.391 28.8275 112.334 28.8454C112.277 28.8655 112.229 28.9078 112.204 28.9632L111.193 31.1819C111.144 31.2869 111.186 31.41 111.287 31.4644C112.343 32.0361 113.297 32.28 114.475 32.28C116.68 32.28 117.898 31.2539 118.972 28.4928L124.152 15.116C124.178 15.0486 124.17 14.9726 124.129 14.9129C124.088 14.8537 124.021 14.818 123.949 14.818H120.841C120.748 14.818 120.665 14.8771 120.634 14.9646L117.45 24.0541L113.963 14.9586C113.931 14.8739 113.85 14.818 113.759 14.818H108.658L108.659 14.8174ZM102.023 14.8043H99.0371C98.9165 14.8043 98.8182 14.9022 98.8182 15.0228V28.0413C98.8182 28.1618 98.9165 28.2599 99.0371 28.2599H102.023C102.143 28.2599 102.241 28.1618 102.241 28.0413V15.0239C102.242 14.9657 102.218 14.91 102.177 14.8688C102.136 14.8279 102.08 14.8048 102.022 14.805L102.023 14.8043ZM100.547 8.87657C99.3641 8.87657 98.4043 9.83343 98.4043 11.0157C98.4043 12.1985 99.3643 13.1565 100.547 13.1565C101.729 13.1565 102.688 12.1985 102.688 11.0157C102.688 9.83362 101.729 8.87657 100.548 8.87657H100.547ZM126.701 18.9897C125.519 18.9897 124.6 18.0414 124.6 16.8897C124.6 15.738 125.531 14.7788 126.712 14.7788C127.894 14.7788 128.813 15.7269 128.813 16.8777C128.813 18.0294 127.881 18.9897 126.701 18.9897H126.701ZM126.712 14.9877C125.636 14.9877 124.822 15.8427 124.822 16.8897C124.822 17.9363 125.63 18.7798 126.702 18.7798C127.777 18.7798 128.593 17.9254 128.593 16.8777C128.593 15.8312 127.783 14.9877 126.713 14.9877H126.712H126.712ZM127.178 17.0936L127.772 17.9252H127.271L126.736 17.1623H126.276V17.9252H125.857V15.721H126.84C127.353 15.721 127.69 15.9831 127.69 16.4241C127.692 16.7855 127.482 17.0063 127.18 17.0938H127.178V17.0936ZM126.823 16.0993H126.276V16.7964H126.823C127.096 16.7964 127.259 16.6629 127.259 16.4474C127.259 16.2207 127.095 16.0993 126.823 16.0993H126.823Z" fill="white"/>
</g>
</svg>
