<svg width="124" height="42" viewBox="0 0 124 42" fill="none" xmlns="http://www.w3.org/2000/svg">
<path d="M73.1314 12.9631H73.1223C68.3529 12.9631 64.4937 16.6971 64.4937 21.2921C64.4937 25.8959 68.3529 29.6299 73.1223 29.6299C77.8917 29.6299 81.7601 25.9047 81.7601 21.3009C81.7601 16.6971 77.9008 12.9631 73.1314 12.9631ZM76.7813 24.8328C74.7516 26.7833 71.4748 26.7745 69.4542 24.824C67.4427 22.8736 67.4427 19.7107 69.4542 17.7602C71.4748 15.8009 74.7516 15.8009 76.7813 17.7514L76.7904 17.7602C78.8201 19.7107 78.811 22.8824 76.7813 24.8328Z" fill="white"/>
<path d="M63.1444 26.3433L62.2797 26.2994H54.5068L64.8738 16.2921L64.8283 15.4574C64.7919 14.1132 63.6723 13.0325 62.2797 12.9974L61.4151 12.9534H48.4631L48.5086 13.7881C48.5724 15.1148 49.6737 16.1867 51.0572 16.2482L51.9218 16.2921H59.6948L49.3278 26.2994L49.3733 27.134C49.4189 28.4695 50.5384 29.5502 51.9218 29.5941L52.7865 29.638H65.7384L65.6929 28.8034C65.5746 27.424 64.5643 26.4224 63.1444 26.3433Z" fill="white"/>
<path d="M117.086 12.9626C115.114 12.9626 113.243 13.7885 111.941 15.2206C109.662 12.7078 105.811 12.2246 102.953 14.1048C102.293 13.3756 100.793 12.9626 99.9336 12.9626V29.6384L100.793 29.5944C102.221 29.5066 103.27 28.5225 103.324 27.1344L103.369 26.2997V20.4658L103.415 19.6312C103.415 19.0513 103.568 18.4802 103.84 17.9618C104.78 16.3716 106.878 15.8269 108.523 16.7494C109.038 17.0393 109.473 17.461 109.771 17.9618H109.762C110.042 18.4802 110.187 19.0513 110.187 19.6312L110.232 20.4658V26.2997L110.277 27.1344C110.331 28.4698 111.426 29.5417 112.8 29.5944L113.659 29.6384V20.4658L113.704 19.6312C113.704 19.0425 113.849 18.4714 114.129 17.9531C115.078 16.3628 117.185 15.8181 118.822 16.7494C119.337 17.0393 119.771 17.461 120.069 17.9618C120.341 18.4802 120.485 19.0513 120.485 19.6312L120.53 20.4658V26.2997L120.576 27.1344C120.621 28.4698 121.724 29.5417 123.098 29.5944L123.957 29.6384V19.6312C123.948 15.9499 120.874 12.9626 117.086 12.9626Z" fill="white"/>
<path d="M96.9498 15.4056C95.3296 13.8417 93.1361 12.9631 90.8424 12.9631C88.5487 12.9631 86.3552 13.8417 84.7351 15.4056C81.3674 18.6652 81.3674 23.9455 84.7442 27.1963C88.121 30.447 93.5912 30.447 96.9589 27.1875C100.336 23.9367 100.327 18.6564 96.9498 15.4056ZM94.5014 24.8329C92.4716 26.7833 89.195 26.7745 87.1744 24.8241C85.1629 22.8736 85.1629 19.7107 87.1744 17.7602C89.195 15.801 92.4716 15.801 94.5014 17.7514L94.5105 17.7602C96.5402 19.7107 96.531 22.8824 94.5014 24.8329Z" fill="white"/>
<path d="M0.584473 0.941956H41.5012V41.8597H0.584473V0.941956Z" fill="white"/>
<path d="M7.33276 13.5946H34.335V29.1988H7.33276V13.5946Z" fill="#188BB9"/>
</svg>
